#!OML:ASF H:\Terrain\Walking\May29\JustinRory\rory.ASF
:FULLY-SPECIFIED
:DEGREES
373
root 13.415 17.6725 11.1517 -8.64433 20.8659 -8.56752
lowerback 13.7766 7.0093 -9.4268
upperback 6.77446 8.0806 -4.36666
thorax -1.05987 3.93243 -0.574096
lowerneck -3.6336 -17.6914 -17.1621
upperneck 6.70553 -25.8403 24.2714
head 8.28015 -12.2121 7.38196
rclavicle -6.36111e-015 4.45278e-014
rhumerus 22.013 -52.0659 -63.553
rradius 11.4981
rwrist 45.0722
rhand -19.1891 20.4536
rfingers 7.12502
rthumb 7.1226 -9.40657
lclavicle -6.36111e-015 4.45278e-014
lhumerus -18.0433 -1.77482 56.226
lradius 45.4008
lwrist -1.37101
lhand -18.0951 23.4658
lfingers 7.12502
lthumb 8.17854 53.2876
rfemur -28.6987 1.05468 12.6442
rtibia 60.8698
rfoot -1.05807 6.12418
rtoes -4.49954
lfemur -26.7609 -6.19559 -12.142
ltibia 52.4075
lfoot -16.6548 -1.75037
ltoes -10.9277
374
root 13.4495 17.6925 11.3417 -8.24566 21.2487 -8.26353
lowerback 13.8287 6.87905 -9.51591
upperback 6.74316 7.88943 -4.35429
thorax -1.12211 3.83811 -0.489329
lowerneck -4.01403 -17.5409 -17.32
upperneck 6.72996 -25.5807 24.3411
head 8.33349 -12.0579 7.45072
rclavicle -2.94201e-014 1.90833e-014
rhumerus 24.6271 -54.4087 -66.2437
rradius 10.9732
rwrist 49.1699
rhand -18.8687 20.5282
rfingers 7.12502
rthumb 7.4319 -9.32125
lclavicle -2.94201e-014 1.90833e-014
lhumerus -18.4573 -1.48053 56.3737
lradius 46.7275
lwrist 0.232677
lhand -20.1325 22.0849
lfingers 7.12502
lthumb 6.21194 51.9738
rfemur -28.939 1.3016 12.1955
rtibia 58.0013
rfoot -2.07485 7.12278
rtoes -4.54787
lfemur -26.5185 -6.49917 -12.3946
ltibia 52.6096
lfoot -17.271 -1.88062
ltoes -10.5163
375
root 13.4777 17.7059 11.5353 -7.87645 21.6323 -7.97648
lowerback 13.8748 6.74707 -9.56825
upperback 6.74848 7.70522 -4.38805
thorax -1.13073 3.74722 -0.469263
lowerneck -3.74534 -17.5924 -17.4425
upperneck 6.18989 -25.612 24.5882
head 8.17742 -12.1112 7.56193
rclavicle -7.95139e-016 4.13472e-014
rhumerus 26.2907 -55.4717 -67.9891
rradius 10.6409
rwrist 51.7084
rhand -18.7978 20.3536
rfingers 7.12502
rthumb 7.50037 -9.49339
lclavicle -7.95139e-016 4.13472e-014
lhumerus -18.7751 -1.13438 56.4269
lradius 48.1332
lwrist 1.95979
lhand -21.3842 22.3894
lfingers 7.12502
lthumb 5.00342 52.3103
rfemur -29.0237 1.78081 11.7205
rtibia 54.8078
rfoot -2.73871 8.00275
rtoes -3.06325
lfemur -26.2616 -6.82602 -12.6046
ltibia 52.8372
lfoot -17.7661 -1.95212
ltoes -10.6698
376
root 13.4942 17.7169 11.7268 -7.55955 21.8617 -7.88508
lowerback 13.9532 6.62719 -9.4893
upperback 6.68848 7.54083 -4.42185
thorax -1.21355 3.67142 -0.530409
lowerneck -3.30959 -17.5918 -17.4532
upperneck 5.60477 -25.5862 24.8343
head 7.95106 -12.1518 7.68814
rclavicle 6.12257e-014 -6.36111e-014
rhumerus 28.9753 -57.6524 -71.2012
rradius 10.333
rwrist 55.6267
rhand -18.7239 20.4032
rfingers 7.12502
rthumb 7.5717 -9.44125
lclavicle 6.12257e-014 -6.36111e-014
lhumerus -18.9854 -0.90444 56.2855
lradius 49.2508
lwrist 3.82086
lhand -22.6679 22.3303
lfingers 7.12502
lthumb 3.76377 52.2768
rfemur -29.1538 2.63324 11.4531
rtibia 51.3395
rfoot -2.94395 8.67484
rtoes -0.643406
lfemur -26.1152 -7.0051 -12.5317
ltibia 53.1661
lfoot -18.1253 -1.87779
ltoes -10.7329
377
root 13.5124 17.7363 11.929 -7.27667 21.9869 -7.50498
lowerback 14.0232 6.57114 -9.7347
upperback 6.68635 7.42507 -4.51419
thorax -1.25908 3.61207 -0.48443
lowerneck -3.49884 -17.515 -17.2208
upperneck 5.7157 -25.4608 24.6956
head 7.93727 -12.0729 7.626
rclavicle -1.20861e-013 2.8625e-014
rhumerus 32.1299 -59.5465 -74.908
rradius 9.96304
rwrist 60.0404
rhand -18.4306 20.3244
rfingers 7.12502
rthumb 7.85478 -9.50972
lclavicle -1.20861e-013 2.8625e-014
lhumerus -19.2869 -0.738225 56.0552
lradius 50.6272
lwrist 5.30758
lhand -23.5105 22.1559
lfingers 7.12502
lthumb 2.95011 52.1152
rfemur -29.0482 3.55382 10.8792
rtibia 47.6888
rfoot -3.15359 9.34337
rtoes 2.50501
lfemur -25.7999 -7.10501 -12.7681
ltibia 53.6121
lfoot -18.5756 -1.81279
ltoes -11.0522
378
root 13.5333 17.7396 12.134 -6.95081 22.3172 -7.15713
lowerback 13.9775 6.45894 -9.8706
upperback 6.76307 7.27718 -4.57685
thorax -1.14861 3.53377 -0.440869
lowerneck -3.99294 -17.4659 -16.898
upperneck 6.16839 -25.3549 24.2333
head 8.02394 -11.9737 7.41544
rclavicle -1.31993e-013 5.40694e-014
rhumerus 35.8545 -61.4456 -78.9963
rradius 9.57193
rwrist 64.4952
rhand -18.4862 20.0287
rfingers 7.12502
rthumb 7.8011 -9.80734
lclavicle -1.31993e-013 5.40694e-014
lhumerus -19.6514 -0.518723 55.9878
lradius 52.2782
lwrist 6.19783
lhand -23.7107 22.9295
lfingers 7.12502
lthumb 2.75674 52.8914
rfemur -28.8512 4.18764 10.2673
rtibia 43.9768
rfoot -7.14781 10.8398
rtoes -11.8607
lfemur -25.6566 -7.16403 -13.0106
ltibia 54.2294
lfoot -19.1068 -2.14489
ltoes -11.744
379
root 13.5605 17.7312 12.3268 -6.4458 22.7645 -7.21015
lowerback 13.8244 6.19137 -9.42819
upperback 6.68311 6.99763 -4.61922
thorax -1.08696 3.40593 -0.65906
lowerneck -4.26124 -17.3947 -16.7736
upperneck 6.55126 -25.2441 23.9117
head 8.09989 -11.8928 7.29731
rclavicle -3.81667e-014 -5.08889e-014
rhumerus 40.0581 -63.1422 -83.5303
rradius 9.17177
rwrist 68.5604
rhand -18.8247 19.6404
rfingers 7.12502
rthumb 7.47439 -10.2075
lclavicle -3.81667e-014 -5.08889e-014
lhumerus -20.2352 -0.269144 55.862
lradius 53.9833
lwrist 7.11397
lhand -24.017 23.749
lfingers 7.12502
lthumb 2.46097 53.7145
rfemur -28.931 4.60221 9.95722
rtibia 40.2109
rfoot -4.45299 10.5388
rtoes -1.4759
lfemur -26.0781 -7.17329 -12.8541
ltibia 55.103
lfoot -19.2636 -2.27819
ltoes -12.8871
380
root 13.5866 17.7423 12.5213 -5.88506 23.0449 -6.93149
lowerback 13.785 6.09854 -9.23324
upperback 6.54735 6.89132 -4.73492
thorax -1.17173 3.36424 -0.869835
lowerneck -4.31039 -17.3584 -16.8095
upperneck 6.79356 -25.2053 23.7841
head 8.16213 -11.8651 7.26541
rclavicle -8.50798e-014 4.77083e-014
rhumerus 44.494 -64.8907 -88.2333
rradius 8.85359
rwrist 72.5752
rhand -18.6066 19.2057
rfingers 7.12502
rthumb 7.68491 -10.6346
lclavicle -8.50798e-014 4.77083e-014
lhumerus -20.6724 -0.15103 55.7386
lradius 55.4523
lwrist 8.19616
lhand -24.7381 22.0248
lfingers 7.12502
lthumb 1.7645 51.9973
rfemur -28.8235 5.18766 9.3377
rtibia 36.4305
rfoot -4.88833 10.2256
rtoes 0.719259
lfemur -26.5068 -7.03492 -13.0437
ltibia 56.1853
lfoot -19.166 -2.09909
ltoes -14.0463
381
root 13.599 17.7557 12.7292 -5.66196 23.4006 -6.96545
lowerback 13.8774 6.06621 -8.87595
upperback 6.41485 6.86895 -4.72515
thorax -1.32764 3.36635 -1.0648
lowerneck -3.9552 -17.2927 -16.7764
upperneck 6.76546 -25.1184 23.6434
head 8.04432 -11.8573 7.2676
rclavicle -6.52014e-014 1.27222e-014
rhumerus 48.8091 -66.8044 -92.9175
rradius 8.73789
rwrist 76.6152
rhand -18.2669 18.7694
rfingers 7.12502
rthumb 8.01273 -11.0587
lclavicle -6.52014e-014 1.27222e-014
lhumerus -20.8869 -0.199753 55.652
lradius 56.4222
lwrist 8.98203
lhand -25.2483 18.873
lfingers 7.12502
lthumb 1.27178 48.849
rfemur -28.2589 5.89977 9.09725
rtibia 32.7215
rfoot -5.31907 9.128
rtoes 1.45673
lfemur -26.9277 -6.78642 -12.8622
ltibia 57.512
lfoot -19.0029 -2.50849
ltoes -12.8554
382
root 13.6173 17.7516 12.9547 -5.62829 23.9958 -7.10692
lowerback 13.8177 5.84109 -8.44915
upperback 6.38444 6.63641 -4.71897
thorax -1.27787 3.25987 -1.2423
lowerneck -3.70862 -17.1529 -16.5663
upperneck 6.93299 -24.9232 23.2784
head 7.92602 -11.7864 7.18948
rclavicle -1.74931e-014 1.90833e-014
rhumerus 53.3794 -68.47 -98.1127
rradius 8.73892
rwrist 80.6182
rhand -18.5451 18.7464
rfingers 7.12502
rthumb 7.74419 -11.0918
lclavicle -1.74931e-014 1.90833e-014
lhumerus -21.3169 -0.180722 55.2946
lradius 57.4548
lwrist 9.58423
lhand -25.4467 17.1795
lfingers 7.12502
lthumb 1.0801 47.1565
rfemur -27.4041 6.35087 8.94951
rtibia 29.231
rfoot -5.71899 7.5713
rtoes 1.48574
lfemur -27.2317 -6.6108 -12.6627
ltibia 59.0303
lfoot -18.5837 -3.00557
ltoes -10.885
383
root 13.6409 17.7346 13.1877 -5.56183 24.4709 -6.96659
lowerback 13.618 5.67109 -8.35648
upperback 6.48577 6.4648 -4.70742
thorax -1.04951 3.17166 -1.22437
lowerneck -3.96357 -17.0936 -16.4079
upperneck 7.53435 -24.8348 22.7434
head 8.03834 -11.717 6.99344
rclavicle 3.49861e-014 -1.90833e-014
rhumerus 59.1087 -69.8678 -104.175
rradius 8.63847
rwrist 84.4937
rhand -18.4252 18.8374
rfingers 7.12502
rthumb 7.85996 -10.9965
lclavicle 3.49861e-014 -1.90833e-014
lhumerus -21.6771 -0.0289024 54.9967
lradius 58.4481
lwrist 10.2273
lhand -25.4113 17.0171
lfingers 7.12502
lthumb 1.11434 46.9939
rfemur -26.5751 6.86185 8.52632
rtibia 26.0514
rfoot -5.994 5.49895
rtoes 1.1801
lfemur -27.4328 -6.29138 -12.8169
ltibia 60.7548
lfoot -18.2623 -3.0991
ltoes -11.2285
384
root 13.6512 17.7108 13.4093 -5.58268 24.7691 -7.34602
lowerback 13.5273 5.60537 -7.8196
upperback 6.47239 6.45729 -4.53899
thorax -0.985722 3.17509 -1.32736
lowerneck -4.12569 -17.1137 -16.3944
upperneck 7.98945 -24.854 22.3427
head 8.15134 -11.7105 6.8435
rclavicle -9.54166e-014 7.95139e-014
rhumerus 66.003 -71.1235 -111.167
rradius 8.62996
rwrist 88.3886
rhand -17.5101 18.6689
rfingers 7.12502
rthumb 8.74316 -11.13
lclavicle -9.54166e-014 7.95139e-014
lhumerus -21.7757 -0.029909 54.883
lradius 59.1753
lwrist 10.7907
lhand -25.0869 16.8006
lfingers 7.12502
lthumb 1.42764 46.7756
rfemur -26.0011 7.61115 8.65635
rtibia 23.2598
rfoot -5.54884 2.58674
rtoes 2.45313
lfemur -28.0614 -5.64475 -12.3346
ltibia 62.7884
lfoot -17.5524 -3.1409
ltoes -10.8134
385
root 13.6529 17.6776 13.6339 -5.8962 25.1133 -8.18995
lowerback 13.5537 5.50113 -6.83324
upperback 6.41767 6.43642 -4.33424
thorax -0.988618 3.18235 -1.64805
lowerneck -4.13761 -17.0588 -16.2283
upperneck 8.37229 -24.7802 21.9472
head 8.17754 -11.6711 6.71017
rclavicle 1.25632e-013 -1.11319e-013
rhumerus 73.6413 -72.2295 -119.046
rradius 8.77081
rwrist 92.3037
rhand -16.787 18.4581
rfingers 7.12502
rthumb 9.44087 -11.3105
lclavicle 1.25632e-013 -1.11319e-013
lhumerus -22.0134 -0.171605 54.5894
lradius 60.1697
lwrist 11.3797
lhand -24.8374 15.7201
lfingers 7.12502
lthumb 1.66865 45.6934
rfemur -25.2491 8.29962 9.36206
rtibia 20.8654
rfoot -4.46403 -1.34866
rtoes 6.70653
lfemur -28.9292 -4.83703 -11.3061
ltibia 65.163
lfoot -16.0045 -3.17866
ltoes -7.36775
386
root 13.656 17.6335 13.8681 -6.2568 25.7451 -8.63131
lowerback 13.6531 5.38816 -6.26347
upperback 6.41579 6.35258 -4.17427
thorax -1.0066 3.15104 -1.78649
lowerneck -3.95954 -16.9393 -16.0024
upperneck 8.77037 -24.6151 21.4207
head 8.12993 -11.6065 6.56371
rclavicle -1.51076e-014 -2.22639e-014
rhumerus 81.9811 -73.2607 -127.423
rradius 8.80344
rwrist 96.0291
rhand -16.4245 18.2962
rfingers 7.12502
rthumb 9.79057 -11.4562
lclavicle -1.51076e-014 -2.22639e-014
lhumerus -22.4268 -0.414301 54.3159
lradius 61.1197
lwrist 11.83
lhand -25.2455 14.1628
lfingers 7.12502
lthumb 1.27448 44.1387
rfemur -24.107 8.44755 9.80661
rtibia 18.753
rfoot -3.07284 -5.59719
rtoes 8.11716
lfemur -29.9242 -4.24773 -10.7738
ltibia 67.847
lfoot -14.3835 -2.66418
ltoes -5.69164
